<svg width="16" height="17" viewBox="0 0 16 17" fill="none" xmlns="http://www.w3.org/2000/svg">
<path d="M2.9365 10.8509L5.9565 13.8709C7.1965 15.1109 9.20984 15.1109 10.4565 13.8709L13.3832 10.9442C14.6232 9.70424 14.6232 7.69091 13.3832 6.44424L10.3565 3.43091C9.72317 2.79758 8.84984 2.45758 7.9565 2.50424L4.62317 2.66424C3.28984 2.72424 2.22984 3.78424 2.16317 5.11091L2.00317 8.44424C1.96317 9.34424 2.30317 10.2176 2.9365 10.8509Z" stroke="#087E8B" stroke-width="1.5" stroke-linecap="round" stroke-linejoin="round"/>
<path d="M6.48991 8.65096C7.41038 8.65096 8.15658 7.90477 8.15658 6.98429C8.15658 6.06382 7.41038 5.31763 6.48991 5.31763C5.56943 5.31763 4.82324 6.06382 4.82324 6.98429C4.82324 7.90477 5.56943 8.65096 6.48991 8.65096Z" stroke="#087E8B" stroke-width="1.5" stroke-linecap="round"/>
<path d="M8.82324 11.9843L11.4899 9.31763" stroke="#087E8B" stroke-width="1.5" stroke-miterlimit="10" stroke-linecap="round" stroke-linejoin="round"/>
</svg>
