<svg width="24" height="24" viewBox="0 0 24 24" fill="none" xmlns="http://www.w3.org/2000/svg">
<path d="M9.03001 21.69L11.36 19.73C11.71 19.43 12.29 19.43 12.64 19.73L14.97 21.69C15.51 21.96 16.17 21.69 16.37 21.11L16.81 19.78C16.92 19.46 16.81 18.99 16.57 18.75L14.3 16.47C14.13 16.31 14 15.99 14 15.76V12.91C14 12.49 14.31 12.29 14.7 12.45L19.61 14.57C20.38 14.9 21.01 14.49 21.01 13.65V12.36C21.01 11.69 20.51 10.92 19.89 10.66L14.3 8.25001C14.14 8.18001 14 7.97001 14 7.79001V4.79001C14 3.85001 13.31 2.74001 12.47 2.31001C12.17 2.16001 11.82 2.16001 11.52 2.31001C10.68 2.74001 9.99001 3.86001 9.99001 4.80001V7.80001C9.99001 7.98001 9.85001 8.19001 9.69001 8.26001L4.11001 10.67C3.49001 10.92 2.99001 11.69 2.99001 12.36V13.65C2.99001 14.49 3.62001 14.9 4.39001 14.57L9.30001 12.45C9.68001 12.28 10 12.49 10 12.91V15.76C10 15.99 9.87001 16.31 9.71001 16.47L7.44001 18.75C7.20001 18.99 7.09001 19.45 7.20001 19.78L7.64001 21.11C7.82001 21.69 8.48001 21.97 9.03001 21.69Z" stroke="#C81D25" stroke-width="1.5" stroke-linecap="round" stroke-linejoin="round"/>
</svg>
