<svg width="24" height="24" viewBox="0 0 24 24" fill="none" xmlns="http://www.w3.org/2000/svg">
<path d="M17.24 22.75H6.76001C3.96001 22.75 2.18001 21.08 2.02001 18.29L1.50001 10.04C1.42001 8.79 1.85001 7.59 2.71001 6.68C3.56001 5.77 4.76001 5.25 6.00001 5.25C6.32001 5.25 6.63001 5.06 6.78001 4.76L7.50001 3.33C8.09001 2.16 9.57001 1.25 10.86 1.25H13.15C14.44 1.25 15.91 2.16 16.5 3.32L17.22 4.78C17.37 5.06 17.67 5.25 18 5.25C19.24 5.25 20.44 5.77 21.29 6.68C22.15 7.6 22.58 8.79 22.5 10.04L21.98 18.3C21.8 21.13 20.07 22.75 17.24 22.75ZM10.86 2.75C10.12 2.75 9.18001 3.33 8.84001 4L8.12001 5.44C7.70001 6.25 6.89001 6.75 6.00001 6.75C5.16001 6.75 4.38001 7.09 3.80001 7.7C3.23001 8.31 2.94001 9.11 3.00001 9.94L3.52001 18.2C3.64001 20.22 4.73001 21.25 6.76001 21.25H17.24C19.26 21.25 20.35 20.22 20.48 18.2L21 9.94C21.05 9.11 20.77 8.31 20.2 7.7C19.62 7.09 18.84 6.75 18 6.75C17.11 6.75 16.3 6.25 15.88 5.46L15.15 4C14.82 3.34 13.88 2.76 13.14 2.76H10.86V2.75Z" fill="#C81D25"/>
<path d="M13.5 8.75H10.5C10.09 8.75 9.75 8.41 9.75 8C9.75 7.59 10.09 7.25 10.5 7.25H13.5C13.91 7.25 14.25 7.59 14.25 8C14.25 8.41 13.91 8.75 13.5 8.75Z" fill="#C81D25"/>
<path d="M12 18.75C9.79 18.75 8 16.96 8 14.75C8 12.54 9.79 10.75 12 10.75C14.21 10.75 16 12.54 16 14.75C16 16.96 14.21 18.75 12 18.75ZM12 12.25C10.62 12.25 9.5 13.37 9.5 14.75C9.5 16.13 10.62 17.25 12 17.25C13.38 17.25 14.5 16.13 14.5 14.75C14.5 13.37 13.38 12.25 12 12.25Z" fill="#C81D25"/>
</svg>
