<svg width="24" height="24" viewBox="0 0 24 24" fill="none" xmlns="http://www.w3.org/2000/svg">
<path d="M9 13C8.34 13.33 7.79 13.82 7.38 14.43C7.15 14.78 7.15 15.22 7.38 15.57C7.79 16.18 8.34 16.67 9 17" stroke="#C81D25" stroke-width="1.5" stroke-linecap="round" stroke-linejoin="round"/>
<path d="M15.21 13C15.87 13.33 16.42 13.82 16.83 14.43C17.06 14.78 17.06 15.22 16.83 15.57C16.42 16.18 15.87 16.67 15.21 17" stroke="#C81D25" stroke-width="1.5" stroke-linecap="round" stroke-linejoin="round"/>
<path d="M9 22H15C20 22 22 20 22 15V9C22 4 20 2 15 2H9C4 2 2 4 2 9V15C2 20 4 22 9 22Z" stroke="#C81D25" stroke-width="1.5" stroke-linecap="round" stroke-linejoin="round"/>
<path d="M2.23 8.01L21.45 8" stroke="#C81D25" stroke-width="1.5" stroke-linecap="round" stroke-linejoin="round"/>
</svg>
