<svg width="24" height="24" viewBox="0 0 24 24" fill="none" xmlns="http://www.w3.org/2000/svg">
<path d="M6.28 22.75C4.15 22.75 2.41 21.01 2.41 18.88C2.41 16.75 4.15 15.01 6.28 15.01C8.41 15.01 10.15 16.75 10.15 18.88C10.15 21.01 8.41 22.75 6.28 22.75ZM6.28 16.51C4.97 16.51 3.91 17.57 3.91 18.88C3.91 20.19 4.97 21.25 6.28 21.25C7.59 21.25 8.65 20.19 8.65 18.88C8.65 17.57 7.59 16.51 6.28 16.51Z" fill="#C81D25"/>
<path d="M9.39999 19.63C8.98999 19.63 8.64999 19.29 8.64999 18.88V6.30001C8.64999 4.72001 9.59999 3.48001 11.12 3.07001L17.36 1.37001C18.63 1.02001 19.7 1.15001 20.45 1.73001C21.21 2.31001 21.59 3.28001 21.59 4.61001V16.81C21.59 17.22 21.25 17.56 20.84 17.56C20.43 17.56 20.09 17.22 20.09 16.81V4.60001C20.09 4.02001 19.99 3.26001 19.54 2.92001C19.05 2.54001 18.21 2.69001 17.75 2.82001L11.51 4.52001C10.64 4.76001 10.15 5.41001 10.15 6.31001V18.89C10.15 19.29 9.80999 19.63 9.39999 19.63Z" fill="#C81D25"/>
<path d="M17.72 20.6701C15.59 20.6701 13.85 18.9301 13.85 16.8001C13.85 14.6701 15.59 12.9301 17.72 12.9301C19.85 12.9301 21.59 14.6701 21.59 16.8001C21.59 18.9301 19.85 20.6701 17.72 20.6701ZM17.72 14.4301C16.41 14.4301 15.35 15.4901 15.35 16.8001C15.35 18.1101 16.41 19.1701 17.72 19.1701C19.03 19.1701 20.09 18.1101 20.09 16.8001C20.09 15.4901 19.03 14.4301 17.72 14.4301Z" fill="#C81D25"/>
<path d="M9.4 10.27C9.07 10.27 8.77 10.05 8.68 9.72003C8.57 9.32003 8.8 8.90003 9.2 8.79003L20.64 5.67003C21.04 5.56003 21.45 5.80003 21.56 6.20003C21.67 6.60003 21.43 7.01003 21.03 7.12003L9.6 10.24C9.53 10.26 9.46 10.27 9.4 10.27Z" fill="#C81D25"/>
</svg>
